<?xml version="1.0" encoding="UTF-8" standalone="no"?>
<!DOCTYPE svg PUBLIC "-//W3C//DTD SVG 1.1//EN" "http://www.w3.org/Graphics/SVG/1.1/DTD/svg11.dtd">
<svg width="100%" height="100%" viewBox="0 0 3334 3334" version="1.1" xmlns="http://www.w3.org/2000/svg" xmlns:xlink="http://www.w3.org/1999/xlink" xml:space="preserve" xmlns:serif="http://www.serif.com/" style="fill-rule:evenodd;clip-rule:evenodd;stroke-linejoin:round;stroke-miterlimit:1.41421;">
    <g transform="matrix(4.16667,0,0,4.16667,0,0)">
        <g transform="matrix(-3.39609,0,0,3.39609,2582.22,-1800.45)">
            <path d="M566.546,683.452C570.121,678.07 571.592,671.329 570.584,664.947C570.489,664.348 570.297,663.656 569.729,663.442C568.926,663.14 568.208,664.034 567.84,664.81C565.136,670.509 564.327,677.089 565.571,683.274C563.082,677.081 558.797,671.621 553.373,667.732C552.066,666.795 549.863,666.147 549.169,667.598C548.775,668.422 549.23,669.387 549.707,670.167C553.9,677.036 560.552,682.368 568.17,684.964C566.45,682.428 563.438,681.006 560.41,680.534C557.383,680.062 554.294,680.425 551.252,680.788C549.895,680.95 548.13,681.591 548.287,682.948C548.4,683.924 549.492,684.428 550.439,684.688C556.016,686.218 562.14,685.658 567.346,683.141" style="fill:none;fill-rule:nonzero;stroke:white;stroke-width:2.77px;"/>
            <path d="M566.546,683.452C570.121,678.07 571.592,671.329 570.584,664.947C570.489,664.348 570.297,663.656 569.729,663.442C568.926,663.14 568.208,664.034 567.84,664.81C565.136,670.509 564.327,677.089 565.571,683.274C563.082,677.081 558.797,671.621 553.373,667.732C552.066,666.795 549.863,666.147 549.169,667.598C548.775,668.422 549.23,669.387 549.707,670.167C553.9,677.036 560.552,682.368 568.17,684.964C566.45,682.428 563.438,681.006 560.41,680.534C557.383,680.062 554.294,680.425 551.252,680.788C549.895,680.95 548.13,681.591 548.287,682.948C548.4,683.924 549.492,684.428 550.439,684.688C556.016,686.218 562.14,685.658 567.346,683.141" style="fill:rgb(0,116,107);fill-rule:nonzero;"/>
        </g>
        <g transform="matrix(3.39609,0,0,3.39609,-1782.22,-1800.8)">
            <path d="M566.546,683.452C570.121,678.07 571.592,671.329 570.584,664.947C570.489,664.348 570.297,663.656 569.729,663.442C568.926,663.14 568.208,664.034 567.84,664.81C565.136,670.509 564.327,677.089 565.571,683.274C563.082,677.081 558.797,671.621 553.373,667.732C552.066,666.795 549.863,666.147 549.169,667.598C548.775,668.422 549.23,669.387 549.707,670.167C553.9,677.036 560.552,682.368 568.17,684.964C566.45,682.428 563.438,681.006 560.41,680.534C557.383,680.062 554.294,680.425 551.252,680.788C549.895,680.95 548.13,681.591 548.287,682.948C548.4,683.924 549.492,684.428 550.439,684.688C556.016,686.218 562.14,685.658 567.346,683.141" style="fill:none;fill-rule:nonzero;stroke:white;stroke-width:2.77px;"/>
            <path d="M566.546,683.452C570.121,678.07 571.592,671.329 570.584,664.947C570.489,664.348 570.297,663.656 569.729,663.442C568.926,663.14 568.208,664.034 567.84,664.81C565.136,670.509 564.327,677.089 565.571,683.274C563.082,677.081 558.797,671.621 553.373,667.732C552.066,666.795 549.863,666.147 549.169,667.598C548.775,668.422 549.23,669.387 549.707,670.167C553.9,677.036 560.552,682.368 568.17,684.964C566.45,682.428 563.438,681.006 560.41,680.534C557.383,680.062 554.294,680.425 551.252,680.788C549.895,680.95 548.13,681.591 548.287,682.948C548.4,683.924 549.492,684.428 550.439,684.688C556.016,686.218 562.14,685.658 567.346,683.141" style="fill:rgb(0,116,107);fill-rule:nonzero;"/>
        </g>
        <g transform="matrix(2.54031,0,0,2.83624,-2216.82,-5222.29)">
            <path d="M938.508,2060.33C938.508,2066.35 934.317,2069.36 925.935,2069.36C922.875,2069.36 920.157,2069.01 917.781,2068.31L918.635,2064.48C921.37,2065.42 923.966,2065.9 926.423,2065.9C931.957,2065.9 934.724,2064.33 934.724,2061.21C934.724,2059.63 934.008,2058.28 932.576,2057.16C931.615,2056.41 929.727,2055.41 926.912,2054.15C923.949,2052.84 921.874,2051.62 920.686,2050.52C919.042,2048.99 918.22,2047.07 918.22,2044.75C918.22,2042.35 919.058,2040.38 920.735,2038.87C922.607,2037.18 925.251,2036.33 928.669,2036.33C932.543,2036.33 935.196,2036.58 936.628,2037.09L936.042,2040.97C933.568,2040.19 930.94,2039.8 928.157,2039.8C923.974,2039.8 921.882,2041.2 921.882,2044C921.882,2045.35 922.484,2046.48 923.689,2047.39C924.47,2047.96 926.195,2048.82 928.865,2049.98C931.908,2051.3 934.106,2052.55 935.456,2053.74C937.491,2055.53 938.508,2057.73 938.508,2060.33Z" style="fill:rgb(77,77,77);fill-rule:nonzero;"/>
            <path d="M964.729,2068.53L960.945,2068.68C960.717,2067.77 960.603,2067.02 960.603,2066.43L960.359,2066.43C958.194,2068.26 955.566,2069.17 952.473,2069.17C949.657,2069.17 947.611,2068.49 946.333,2067.13C945.055,2065.77 944.416,2063.03 944.416,2058.91C944.416,2058.33 944.433,2057.46 944.465,2056.3C944.498,2055.15 944.514,2054.36 944.514,2053.93C944.514,2051.54 944.376,2048.72 944.099,2045.49L948.64,2045.32C948.445,2048.46 948.347,2051.14 948.347,2053.37C948.347,2058.5 948.677,2061.84 949.336,2063.39C949.995,2064.95 951.48,2065.72 953.791,2065.72C956.396,2065.72 958.544,2065.07 960.237,2063.77C960.237,2054.72 960.155,2048.63 959.993,2045.49L964.387,2045.32C964.257,2048.38 964.192,2052.61 964.192,2058.01C964.192,2061.48 964.371,2064.99 964.729,2068.53Z" style="fill:rgb(77,77,77);fill-rule:nonzero;"/>
            <g transform="matrix(1,0,0,1,23.5775,0)">
                <path d="M988.679,2064.82L988.435,2068.09C987.117,2068.84 985.351,2069.22 983.137,2069.22C978.922,2069.22 975.699,2068.05 973.469,2065.72C971.239,2063.4 970.124,2060.59 970.124,2057.3C970.124,2053.82 971.296,2050.82 973.64,2048.32C975.984,2045.81 979.084,2044.56 982.942,2044.56C984.879,2044.56 986.457,2044.75 987.678,2045.14L987.019,2048.98C985.31,2048.34 983.577,2048.03 981.819,2048.03C979.508,2048.03 977.668,2048.83 976.301,2050.44C974.934,2052.05 974.25,2054.07 974.25,2056.5C974.25,2059.13 975.064,2061.33 976.692,2063.09C978.319,2064.85 980.623,2065.72 983.601,2065.72C984.822,2065.72 986.514,2065.42 988.679,2064.82Z" style="fill:rgb(77,77,77);fill-rule:nonzero;"/>
            </g>
            <g transform="matrix(1,0,0,1,1.47931,0)">
                <path d="M988.679,2064.82L988.435,2068.09C987.117,2068.84 985.351,2069.22 983.137,2069.22C978.922,2069.22 975.699,2068.05 973.469,2065.72C971.239,2063.4 970.124,2060.59 970.124,2057.3C970.124,2053.82 971.296,2050.82 973.64,2048.32C975.984,2045.81 979.084,2044.56 982.942,2044.56C984.879,2044.56 986.457,2044.75 987.678,2045.14L987.019,2048.98C985.31,2048.34 983.577,2048.03 981.819,2048.03C979.508,2048.03 977.668,2048.83 976.301,2050.44C974.934,2052.05 974.25,2054.07 974.25,2056.5C974.25,2059.13 975.064,2061.33 976.692,2063.09C978.319,2064.85 980.623,2065.72 983.601,2065.72C984.822,2065.72 986.514,2065.42 988.679,2064.82Z" style="fill:rgb(77,77,77);fill-rule:nonzero;"/>
            </g>
            <g transform="matrix(1,0,0,1,23.5775,0)">
                <path d="M1014.09,2068.53L1010.31,2068.68C1010.08,2067.77 1009.97,2067.02 1009.97,2066.43L1009.72,2066.43C1007.56,2068.26 1004.93,2069.17 1001.84,2069.17C999.023,2069.17 996.976,2068.49 995.698,2067.13C994.421,2065.77 993.782,2063.03 993.782,2058.91C993.782,2058.33 993.798,2057.46 993.831,2056.3C993.863,2055.15 993.879,2054.36 993.879,2053.93C993.879,2051.54 993.741,2048.72 993.464,2045.49L998.005,2045.32C997.81,2048.46 997.712,2051.14 997.712,2053.37C997.712,2058.5 998.042,2061.84 998.701,2063.39C999.36,2064.95 1000.85,2065.72 1003.16,2065.72C1005.76,2065.72 1007.91,2065.07 1009.6,2063.77C1009.6,2054.72 1009.52,2048.63 1009.36,2045.49L1013.75,2045.32C1013.62,2048.38 1013.56,2052.61 1013.56,2058.01C1013.56,2061.48 1013.74,2064.99 1014.09,2068.53Z" style="fill:rgb(77,77,77);fill-rule:nonzero;"/>
            </g>
            <g transform="matrix(1,0,0,1,23.5802,0)">
                <path d="M1025.01,2068.56L1020.32,2068.56C1020.61,2063.19 1020.76,2057.12 1020.76,2050.35C1020.76,2043.77 1020.52,2038.39 1020.05,2034.21L1025.01,2033.96C1024.7,2038.39 1024.54,2043.85 1024.54,2050.35C1024.54,2057.03 1024.7,2063.11 1025.01,2068.56Z" style="fill:rgb(77,77,77);fill-rule:nonzero;"/>
            </g>
            <g transform="matrix(1,0,0,1,23.5802,0)">
                <path d="M1051.77,2054.23C1051.77,2054.91 1051.73,2055.85 1051.67,2057.06L1034.89,2057.35C1035.06,2059.73 1035.98,2061.72 1037.65,2063.32C1039.33,2064.92 1041.55,2065.72 1044.32,2065.72C1046.79,2065.72 1049.11,2065.42 1051.28,2064.82L1050.86,2068.26C1049.27,2068.9 1046.96,2069.22 1043.95,2069.22C1039.72,2069.22 1036.49,2068.06 1034.27,2065.75C1032.05,2063.44 1030.94,2060.62 1030.94,2057.3C1030.94,2053.75 1031.95,2050.7 1033.98,2048.14C1036.01,2045.57 1038.73,2044.29 1042.15,2044.29C1045.29,2044.29 1047.68,2045.22 1049.31,2047.07C1050.95,2048.93 1051.77,2051.31 1051.77,2054.23ZM1047.69,2054.28C1047.69,2049.7 1045.78,2047.41 1041.95,2047.41C1038.04,2047.41 1035.74,2049.79 1035.04,2054.54L1047.69,2054.28Z" style="fill:rgb(77,77,77);fill-rule:nonzero;"/>
            </g>
            <g transform="matrix(1,0,0,1,23.5802,0)">
                <path d="M1078.08,2068.56L1073.64,2068.56C1074,2064.28 1074.18,2059.61 1074.18,2054.54C1074.18,2052.04 1073.67,2050.32 1072.65,2049.41C1071.63,2048.49 1070.18,2048.03 1068.29,2048.03C1065.98,2048.03 1063.85,2048.86 1061.9,2050.54C1061.9,2056.09 1061.93,2062.1 1062,2068.56L1057.55,2068.56C1057.83,2063.02 1057.97,2059.02 1057.97,2056.55C1057.97,2052.74 1057.61,2049.04 1056.89,2045.46L1061.19,2044.85L1061.65,2047.83L1061.85,2047.83C1064.26,2045.65 1066.84,2044.56 1069.59,2044.56C1072.29,2044.56 1074.38,2045.16 1075.86,2046.35C1077.34,2047.55 1078.08,2049.68 1078.08,2052.74C1078.08,2053.05 1078.07,2053.66 1078.04,2054.57C1078,2055.48 1077.99,2056.09 1077.99,2056.4C1077.99,2059.12 1078.02,2063.17 1078.08,2068.56Z" style="fill:rgb(77,77,77);fill-rule:nonzero;"/>
            </g>
            <g transform="matrix(1,0,0,1,23.5802,0)">
                <path d="M1097.86,2065.19L1097.57,2068.36C1096.28,2068.83 1095.07,2069.07 1093.93,2069.07C1091,2069.07 1089,2068.33 1087.92,2066.84C1086.85,2065.35 1086.31,2062.68 1086.31,2058.84C1086.31,2056.35 1086.33,2053.1 1086.36,2049.1C1085.45,2049.1 1084.11,2049.15 1082.33,2049.25L1082.48,2045.71C1084.02,2045.8 1085.41,2045.85 1086.63,2045.85C1086.63,2044.88 1086.71,2042.56 1086.87,2038.89L1090.71,2038.5C1090.43,2041.92 1090.29,2044.37 1090.29,2045.85C1091.89,2045.85 1094.23,2045.77 1097.32,2045.61L1097.15,2049.25C1094.22,2049.15 1091.87,2049.1 1090.1,2049.1C1090.06,2051.56 1090.05,2054.32 1090.05,2057.4C1090.05,2060.75 1090.4,2062.97 1091.11,2064.05C1091.82,2065.14 1093.13,2065.68 1095.05,2065.68C1095.69,2065.68 1096.62,2065.51 1097.86,2065.19Z" style="fill:rgb(77,77,77);fill-rule:nonzero;"/>
            </g>
            <path d="M1142.46,2061.94C1142.46,2066.69 1139.43,2069.07 1133.36,2069.07C1130.67,2069.07 1128.16,2068.8 1125.84,2068.26L1126.59,2064.68C1128.71,2065.49 1131.01,2065.9 1133.48,2065.9C1137.03,2065.9 1138.8,2064.89 1138.8,2062.87C1138.8,2061.89 1138.41,2061.12 1137.62,2060.54C1136.83,2059.96 1135.52,2059.31 1133.7,2058.6C1131.39,2057.68 1129.71,2056.81 1128.67,2055.96C1127.14,2054.71 1126.37,2053.19 1126.37,2051.42C1126.37,2049.56 1127.07,2047.97 1128.47,2046.65C1129.87,2045.32 1132.01,2044.66 1134.87,2044.66C1137.67,2044.66 1139.92,2044.89 1141.61,2045.36L1140.85,2048.88C1139.09,2048.18 1137.06,2047.83 1134.75,2047.83C1131.62,2047.83 1130.06,2048.73 1130.06,2050.54C1130.06,2051.45 1130.41,2052.19 1131.11,2052.75C1131.81,2053.31 1133.18,2053.99 1135.21,2054.79C1137.41,2055.65 1139.04,2056.5 1140.1,2057.33C1141.67,2058.61 1142.46,2060.15 1142.46,2061.94Z" style="fill:rgb(77,77,77);fill-rule:nonzero;"/>
        </g>
        <g transform="matrix(8.47494,0,0,1.64274,-1404.04,-85.9826)">
            <path d="M245.138,453.94C218.595,455.645 195.709,459.992 180.082,469.908C179.706,470.268 181.639,472.916 182.206,473.937C182.949,475.274 183.67,476.703 184.714,477.83C184.957,478.095 185.25,478.013 185.433,477.806C189.701,474.933 198.755,464.964 245.371,455.071C246.017,454.935 245.788,453.899 245.138,453.94Z" style="fill:rgb(89,89,89);fill-rule:nonzero;"/>
        </g>
        <g transform="matrix(3.9663,0,0,3.9663,-2362.38,-5776.3)">
            <path d="M634.527,1591.14C633.827,1590.6 633.244,1590.08 632.777,1589.56C632.31,1589.05 631.935,1588.59 631.652,1588.19C631.369,1587.79 631.169,1587.47 631.052,1587.24C630.935,1587 630.877,1586.89 630.877,1586.89C630.844,1586.89 630.827,1586.87 630.827,1586.84L630.827,1586.74C630.827,1586.57 630.927,1586.49 631.127,1586.49C631.194,1586.49 631.46,1586.82 631.927,1587.49C632.394,1588.15 633.11,1588.89 634.077,1589.71C635.044,1590.53 636.319,1591.27 637.902,1591.94C639.485,1592.6 641.444,1592.94 643.777,1592.94C645.277,1592.94 646.777,1592.72 648.277,1592.29C649.777,1591.85 651.144,1591.12 652.377,1590.09C652.877,1589.65 653.352,1589.15 653.802,1588.59C654.252,1588.02 654.635,1587.42 654.952,1586.79C655.269,1586.15 655.519,1585.52 655.702,1584.89C655.885,1584.25 655.977,1583.65 655.977,1583.09C655.977,1582.42 655.619,1581.98 654.902,1581.76C654.185,1581.55 653.327,1581.44 652.327,1581.44C651.194,1581.44 650.11,1581.53 649.077,1581.71C648.044,1581.89 647.127,1582.07 646.327,1582.24C645.86,1583.4 645.377,1584.59 644.877,1585.79C644.377,1586.99 643.96,1587.97 643.627,1588.74C643.527,1589 643.427,1589.3 643.327,1589.64C643.26,1589.94 643.194,1590.29 643.127,1590.69C643.06,1591.09 643.027,1591.55 643.027,1592.09C642.994,1592.09 642.869,1592.06 642.652,1592.01C642.435,1591.96 642.202,1591.86 641.952,1591.71C641.702,1591.56 641.477,1591.35 641.277,1591.09C641.077,1590.82 640.977,1590.47 640.977,1590.04C640.977,1589.7 641.027,1589.25 641.127,1588.69C641.227,1588.12 641.36,1587.51 641.527,1586.86C641.694,1586.21 641.869,1585.56 642.052,1584.91C642.235,1584.26 642.41,1583.69 642.577,1583.19C642.444,1583.19 642.302,1583.08 642.152,1582.86C642.002,1582.64 641.852,1582.39 641.702,1582.09C641.552,1581.79 641.427,1581.5 641.327,1581.21C641.227,1580.93 641.177,1580.7 641.177,1580.54C641.177,1580.3 641.26,1580.17 641.427,1580.14L641.477,1580.14C641.877,1580 642.285,1579.89 642.702,1579.79C643.119,1579.69 643.544,1579.59 643.977,1579.49C644.144,1579.05 644.31,1578.65 644.477,1578.29C644.644,1577.92 644.81,1577.54 644.977,1577.14L645.327,1576.09C645.427,1575.79 645.519,1575.49 645.602,1575.19C645.685,1574.89 645.727,1574.64 645.727,1574.44L645.227,1574.69C644.06,1575.32 643.119,1575.92 642.402,1576.49C641.685,1577.05 641.11,1577.56 640.677,1578.01C640.244,1578.46 639.944,1578.82 639.777,1579.09C639.61,1579.35 639.494,1579.49 639.427,1579.49C638.76,1579.02 638.319,1578.55 638.102,1578.06C637.885,1577.58 637.777,1577.15 637.777,1576.79C637.777,1576.49 637.81,1576.2 637.877,1575.94C637.91,1575.8 637.96,1575.69 638.027,1575.59C638.127,1575.45 638.335,1575.23 638.652,1574.91C638.969,1574.6 639.41,1574.23 639.977,1573.81C640.544,1573.39 641.235,1572.96 642.052,1572.51C642.869,1572.06 643.827,1571.64 644.927,1571.24C645.694,1570.97 646.51,1570.75 647.377,1570.56C648.244,1570.38 649.144,1570.29 650.077,1570.29C650.977,1570.29 651.852,1570.4 652.702,1570.64C653.552,1570.87 654.302,1571.22 654.952,1571.69C655.602,1572.15 656.119,1572.73 656.502,1573.41C656.885,1574.1 657.077,1574.87 657.077,1575.74C657.077,1576.34 656.935,1576.96 656.652,1577.61C656.369,1578.26 656.06,1578.8 655.727,1579.24C656.494,1579.6 657.094,1580.09 657.527,1580.69C657.96,1581.29 658.177,1582.17 658.177,1583.34C658.177,1585.3 657.702,1586.99 656.752,1588.39C655.802,1589.79 654.635,1590.94 653.252,1591.84C651.869,1592.74 650.394,1593.39 648.827,1593.81C647.26,1594.23 645.86,1594.44 644.627,1594.44C642.494,1594.44 640.552,1594.1 638.802,1593.44C637.052,1592.77 635.627,1592 634.527,1591.14ZM654.177,1578.74C654.81,1577.94 655.127,1577.02 655.127,1575.99C655.127,1575.42 654.994,1574.94 654.727,1574.56C654.46,1574.18 654.127,1573.87 653.727,1573.64C653.327,1573.4 652.894,1573.24 652.427,1573.14C651.96,1573.04 651.527,1572.99 651.127,1572.99C650.027,1572.99 648.994,1573.16 648.027,1573.51C647.06,1573.86 646.294,1574.17 645.727,1574.44C645.827,1574.47 646.027,1574.55 646.327,1574.66C646.627,1574.78 646.935,1574.94 647.252,1575.14C647.569,1575.34 647.86,1575.59 648.127,1575.89C648.394,1576.19 648.527,1576.54 648.527,1576.94C648.527,1577.24 648.494,1577.48 648.427,1577.66C648.36,1577.85 648.194,1578.22 647.927,1578.79C648.927,1578.65 649.96,1578.56 651.027,1578.51C652.094,1578.46 653.144,1578.54 654.177,1578.74Z" style="fill:rgb(89,89,89);fill-rule:nonzero;"/>
            <path d="M670.427,1586.04C670.56,1586.07 670.627,1586.14 670.627,1586.24C670.627,1586.27 670.494,1586.6 670.227,1587.21C669.96,1587.83 669.51,1588.5 668.877,1589.21C668.244,1589.93 667.41,1590.59 666.377,1591.19C665.344,1591.79 664.077,1592.09 662.577,1592.09C661.677,1592.09 660.935,1591.87 660.352,1591.44C659.769,1591 659.319,1590.49 659.002,1589.89C658.685,1589.29 658.46,1588.67 658.327,1588.04C658.194,1587.4 658.127,1586.89 658.127,1586.49C658.127,1585.49 658.319,1584.51 658.702,1583.56C659.085,1582.61 659.569,1581.76 660.152,1581.01C660.735,1580.26 661.394,1579.66 662.127,1579.21C662.86,1578.76 663.577,1578.54 664.277,1578.54C665.244,1578.54 665.985,1578.66 666.502,1578.91C667.019,1579.16 667.402,1579.45 667.652,1579.79C667.902,1580.12 668.052,1580.45 668.102,1580.79C668.152,1581.12 668.177,1581.37 668.177,1581.54C668.177,1582.47 667.994,1583.24 667.627,1583.84C667.26,1584.44 666.802,1584.91 666.252,1585.26C665.702,1585.61 665.11,1585.86 664.477,1586.01C663.844,1586.16 663.26,1586.24 662.727,1586.24C662.16,1586.24 661.694,1586.18 661.327,1586.06C660.96,1585.94 660.677,1585.8 660.477,1585.64C660.31,1586.24 660.227,1586.75 660.227,1587.19C660.227,1587.59 660.277,1587.98 660.377,1588.36C660.477,1588.75 660.652,1589.09 660.902,1589.39C661.152,1589.69 661.485,1589.93 661.902,1590.11C662.319,1590.3 662.844,1590.39 663.477,1590.39C664.544,1590.39 665.494,1590.18 666.327,1589.76C667.16,1589.35 667.86,1588.87 668.427,1588.34C668.994,1587.8 669.419,1587.31 669.702,1586.86C669.985,1586.41 670.127,1586.15 670.127,1586.09L670.127,1586.04L670.177,1586.04C670.177,1586.04 670.21,1586.02 670.277,1585.99C670.31,1585.99 670.335,1586 670.352,1586.01C670.369,1586.03 670.394,1586.04 670.427,1586.04ZM661.677,1583.39C661.344,1583.75 661.044,1584.24 660.777,1584.84C661.477,1585 662.11,1585 662.677,1584.81C663.244,1584.63 663.71,1584.36 664.077,1584.01C664.444,1583.66 664.71,1583.29 664.877,1582.89C665.044,1582.49 665.094,1582.19 665.027,1581.99C665.027,1581.89 664.644,1581.84 663.877,1581.84C663.61,1581.84 663.26,1581.98 662.827,1582.26C662.394,1582.55 662.01,1582.92 661.677,1583.39Z" style="fill:rgb(89,89,89);fill-rule:nonzero;"/>
            <path d="M677.377,1574.64C677.144,1575.1 676.71,1575.98 676.077,1577.26C675.444,1578.55 674.785,1579.94 674.102,1581.46C673.419,1582.98 672.819,1584.47 672.302,1585.94C671.785,1587.4 671.527,1588.55 671.527,1589.39C671.527,1590.09 671.81,1590.44 672.377,1590.44C672.944,1590.44 673.644,1590.1 674.477,1589.41C675.31,1588.73 676.06,1587.62 676.727,1586.09C676.727,1586.09 676.76,1586.07 676.827,1586.04C676.927,1586.04 677.027,1586.09 677.127,1586.19L677.227,1586.29C677.227,1586.22 677.152,1586.48 677.002,1587.06C676.852,1587.64 676.585,1588.3 676.202,1589.01C675.819,1589.73 675.294,1590.39 674.627,1591.01C673.96,1591.63 673.094,1591.94 672.027,1591.94C671.76,1591.94 671.477,1591.89 671.177,1591.81C670.877,1591.73 670.594,1591.57 670.327,1591.34C670.06,1591.1 669.835,1590.79 669.652,1590.39C669.469,1589.99 669.377,1589.45 669.377,1588.79C669.377,1587.62 669.594,1586.26 670.027,1584.71C670.46,1583.16 670.952,1581.64 671.502,1580.16C672.052,1578.68 672.577,1577.35 673.077,1576.16C673.577,1574.98 673.91,1574.15 674.077,1573.69L674.427,1572.64C674.527,1572.34 674.619,1572.04 674.702,1571.74C674.785,1571.44 674.827,1571.19 674.827,1570.99C674.894,1571.02 675.077,1571.1 675.377,1571.21C675.677,1571.33 675.994,1571.49 676.327,1571.69C676.66,1571.89 676.96,1572.13 677.227,1572.41C677.494,1572.69 677.627,1573.04 677.627,1573.44C677.627,1573.87 677.544,1574.27 677.377,1574.64Z" style="fill:rgb(89,89,89);fill-rule:nonzero;"/>
            <path d="M690.477,1586.29C690.444,1586.39 690.319,1586.75 690.102,1587.36C689.885,1587.98 689.577,1588.62 689.177,1589.29C688.777,1589.95 688.294,1590.56 687.727,1591.11C687.16,1591.66 686.51,1591.94 685.777,1591.94C685.344,1591.94 684.935,1591.81 684.552,1591.56C684.169,1591.31 683.794,1590.79 683.427,1589.99C683.294,1590.15 683.135,1590.35 682.952,1590.59C682.769,1590.82 682.535,1591.04 682.252,1591.24C681.969,1591.44 681.627,1591.6 681.227,1591.74C680.827,1591.87 680.344,1591.94 679.777,1591.94C679.01,1591.94 678.385,1591.75 677.902,1591.39C677.419,1591.02 677.044,1590.58 676.777,1590.06C676.51,1589.55 676.327,1589 676.227,1588.41C676.127,1587.83 676.077,1587.34 676.077,1586.94C676.077,1586.1 676.252,1585.19 676.602,1584.21C676.952,1583.23 677.444,1582.31 678.077,1581.46C678.71,1580.61 679.477,1579.9 680.377,1579.34C681.277,1578.77 682.277,1578.49 683.377,1578.49C684.044,1578.49 684.544,1578.57 684.877,1578.74C685.21,1578.9 685.56,1579.09 685.927,1579.29C686.027,1579.09 686.119,1578.89 686.202,1578.69C686.285,1578.49 686.344,1578.32 686.377,1578.19C686.41,1578.19 686.544,1578.26 686.777,1578.41C687.01,1578.56 687.269,1578.76 687.552,1579.01C687.835,1579.26 688.094,1579.54 688.327,1579.84C688.56,1580.14 688.677,1580.42 688.677,1580.69C688.677,1580.85 688.644,1581.07 688.577,1581.34C688.51,1581.6 688.344,1581.92 688.077,1582.29C687.477,1583.35 686.894,1584.5 686.327,1585.74C685.76,1586.97 685.477,1588.1 685.477,1589.14C685.477,1589.54 685.519,1589.85 685.602,1590.09C685.685,1590.32 685.877,1590.44 686.177,1590.44C686.61,1590.44 687.185,1590.1 687.902,1589.41C688.619,1588.73 689.31,1587.62 689.977,1586.09C689.977,1586.09 690.01,1586.07 690.077,1586.04C690.277,1586.04 690.394,1586.09 690.427,1586.19C690.46,1586.29 690.477,1586.32 690.477,1586.29ZM683.227,1589.19C683.194,1589.02 683.177,1588.87 683.177,1588.74L683.177,1588.29C683.177,1587.32 683.319,1586.3 683.602,1585.24C683.885,1584.17 684.21,1583.17 684.577,1582.24C684.31,1581.97 684.077,1581.77 683.877,1581.64C683.677,1581.5 683.377,1581.44 682.977,1581.44C682.377,1581.44 681.777,1581.62 681.177,1581.99C680.577,1582.35 680.027,1582.83 679.527,1583.41C679.027,1584 678.619,1584.64 678.302,1585.36C677.985,1586.08 677.827,1586.8 677.827,1587.54C677.827,1587.9 677.852,1588.27 677.902,1588.64C677.952,1589 678.06,1589.35 678.227,1589.69C678.394,1590.02 678.644,1590.29 678.977,1590.49C679.31,1590.69 679.76,1590.79 680.327,1590.79C681.127,1590.79 681.752,1590.58 682.202,1590.16C682.652,1589.75 682.994,1589.42 683.227,1589.19Z" style="fill:rgb(89,89,89);fill-rule:nonzero;"/>
            <g transform="matrix(1,0,0,1,1.5657,0)">
                <path d="M707.327,1592.84C706.927,1592.9 706.519,1592.96 706.102,1593.01C705.685,1593.06 705.26,1593.09 704.827,1593.09C703.627,1593.09 702.51,1592.92 701.477,1592.59C700.444,1592.25 699.535,1591.75 698.752,1591.06C697.969,1590.38 697.352,1589.53 696.902,1588.51C696.452,1587.5 696.227,1586.29 696.227,1584.89C696.227,1583.39 696.519,1581.89 697.102,1580.39C697.685,1578.89 698.494,1577.55 699.527,1576.36C700.56,1575.18 701.777,1574.21 703.177,1573.46C704.577,1572.71 706.077,1572.34 707.677,1572.34C708.577,1572.34 709.285,1572.43 709.802,1572.61C710.319,1572.8 710.769,1573.04 711.152,1573.34C711.535,1573.64 711.885,1573.98 712.202,1574.36C712.519,1574.75 712.91,1575.15 713.377,1575.59C713.377,1575.62 713.302,1575.69 713.152,1575.81C713.002,1575.93 712.819,1576.05 712.602,1576.16C712.385,1576.28 712.144,1576.39 711.877,1576.49C711.61,1576.59 711.36,1576.64 711.127,1576.64C710.994,1576.64 710.76,1576.54 710.427,1576.34C710.06,1576.04 709.619,1575.68 709.102,1575.26C708.585,1574.85 707.827,1574.64 706.827,1574.64C705.46,1574.64 704.202,1574.92 703.052,1575.49C701.902,1576.05 700.919,1576.81 700.102,1577.76C699.285,1578.71 698.644,1579.8 698.177,1581.01C697.71,1582.23 697.477,1583.49 697.477,1584.79C697.477,1586.99 698.127,1588.63 699.427,1589.71C700.727,1590.8 702.494,1591.34 704.727,1591.34C705.994,1591.34 707.144,1591.07 708.177,1590.54C709.21,1590 710.144,1589.3 710.977,1588.44C711.81,1587.57 712.577,1586.6 713.277,1585.51C713.977,1584.43 714.627,1583.34 715.227,1582.24C713.827,1582.3 712.577,1582.34 711.477,1582.34L709.127,1582.34C708.76,1582.3 708.444,1582.26 708.177,1582.21C707.91,1582.16 707.694,1582.06 707.527,1581.91C707.36,1581.76 707.227,1581.52 707.127,1581.19C707.027,1580.85 706.977,1580.4 706.977,1579.84L706.977,1579.39C706.977,1579.32 706.994,1579.25 707.027,1579.19C707.327,1579.32 707.81,1579.44 708.477,1579.54C709.144,1579.64 709.91,1579.73 710.777,1579.81C711.644,1579.89 712.56,1579.97 713.527,1580.04C714.494,1580.1 715.444,1580.19 716.377,1580.29C717.277,1578.59 718.252,1577.1 719.302,1575.81C720.352,1574.53 721.402,1573.46 722.452,1572.61C723.502,1571.76 724.51,1571.13 725.477,1570.71C726.444,1570.3 727.277,1570.09 727.977,1570.09C728.444,1570.09 728.785,1570.14 729.002,1570.26C729.219,1570.38 729.327,1570.89 729.327,1571.79L729.327,1572.26C729.327,1572.48 729.31,1572.62 729.277,1572.69C728.61,1573.69 727.852,1574.9 727.002,1576.34C726.152,1577.77 725.344,1579.3 724.577,1580.94C725.344,1581 725.96,1581.05 726.427,1581.06C726.894,1581.08 727.244,1581.1 727.477,1581.14C727.71,1581.17 727.86,1581.2 727.927,1581.24C727.994,1581.27 728.027,1581.32 728.027,1581.39C728.027,1581.59 727.685,1581.7 727.002,1581.74C726.319,1581.77 725.377,1581.82 724.177,1581.89C723.744,1582.89 723.327,1583.95 722.927,1585.09C722.527,1586.22 722.327,1587.22 722.327,1588.09C722.327,1588.75 722.51,1589.33 722.877,1589.81C723.244,1590.3 723.877,1590.57 724.777,1590.64C725.41,1590.67 726.01,1590.6 726.577,1590.41C727.144,1590.23 727.627,1590.01 728.027,1589.76C728.427,1589.51 728.752,1589.28 729.002,1589.06C729.252,1588.85 729.394,1588.74 729.427,1588.74C729.494,1588.74 729.56,1588.77 729.627,1588.84C729.694,1588.9 729.727,1588.97 729.727,1589.04L729.727,1588.99C729.76,1588.99 729.66,1589.14 729.427,1589.44C729.194,1589.74 728.835,1590.07 728.352,1590.44C727.869,1590.8 727.294,1591.13 726.627,1591.41C725.96,1591.69 725.227,1591.84 724.427,1591.84C724.06,1591.84 723.66,1591.75 723.227,1591.59C722.794,1591.42 722.394,1591.19 722.027,1590.89C721.66,1590.59 721.352,1590.23 721.102,1589.81C720.852,1589.39 720.727,1588.94 720.727,1588.44C720.727,1587.24 720.827,1586.11 721.027,1585.06C721.227,1584.01 721.477,1582.99 721.777,1581.99C720.51,1582.05 719.21,1582.1 717.877,1582.14C717.31,1583.07 716.702,1584.09 716.052,1585.19C715.402,1586.29 714.652,1587.35 713.802,1588.36C712.952,1589.38 711.994,1590.3 710.927,1591.11C709.86,1591.93 708.66,1592.5 707.327,1592.84ZM724.777,1574.14C723.71,1574.8 722.702,1575.69 721.752,1576.81C720.802,1577.93 719.877,1579.15 718.977,1580.49C719.544,1580.55 720.094,1580.6 720.627,1580.61C721.16,1580.63 721.677,1580.67 722.177,1580.74C722.577,1579.47 723.002,1578.27 723.452,1577.14C723.902,1576 724.344,1575 724.777,1574.14Z" style="fill:rgb(89,89,89);fill-rule:nonzero;"/>
            </g>
            <g transform="matrix(1,0,0,1,1.5657,0)">
                <path d="M740.227,1586.09C740.394,1586.19 740.477,1586.25 740.477,1586.29C740.477,1586.35 740.369,1586.69 740.152,1587.29C739.935,1587.89 739.619,1588.53 739.202,1589.21C738.785,1589.89 738.285,1590.52 737.702,1591.09C737.119,1591.65 736.46,1591.94 735.727,1591.94C735.094,1591.94 734.502,1591.63 733.952,1591.01C733.402,1590.39 733.127,1589.49 733.127,1588.29C733.127,1587.32 733.269,1586.32 733.552,1585.29C733.835,1584.25 734.16,1583.29 734.527,1582.39C734.16,1582.45 733.802,1582.5 733.452,1582.51C733.102,1582.53 732.744,1582.55 732.377,1582.59L732.002,1582.59C731.885,1582.59 731.744,1582.57 731.577,1582.54C731.11,1583.3 730.685,1584.02 730.302,1584.69C729.919,1585.35 729.594,1585.92 729.327,1586.39C728.994,1586.95 728.694,1587.47 728.427,1587.94C728.394,1587.94 728.352,1587.92 728.302,1587.89C728.252,1587.85 728.21,1587.84 728.177,1587.84L728.077,1587.74C728.11,1587.64 728.21,1587.39 728.377,1586.99C728.544,1586.59 728.735,1586.1 728.952,1585.54C729.169,1584.97 729.402,1584.37 729.652,1583.74C729.902,1583.1 730.127,1582.52 730.327,1581.99C729.76,1581.62 729.377,1581.18 729.177,1580.66C728.977,1580.14 728.877,1579.7 728.877,1579.34C728.877,1578.97 728.91,1578.69 728.977,1578.51C729.044,1578.33 729.21,1578.24 729.477,1578.24C729.61,1578.24 729.819,1578.25 730.102,1578.29C730.385,1578.32 730.677,1578.37 730.977,1578.44C731.277,1578.5 731.56,1578.58 731.827,1578.66C732.094,1578.75 732.26,1578.82 732.327,1578.89C732.227,1579.12 732.16,1579.26 732.127,1579.31C732.094,1579.36 732.044,1579.42 731.977,1579.49C731.977,1579.55 732.052,1579.6 732.202,1579.64C732.352,1579.67 732.535,1579.7 732.752,1579.74C732.969,1579.77 733.21,1579.8 733.477,1579.81C733.744,1579.83 733.994,1579.84 734.227,1579.84L735.627,1579.84C735.594,1579.9 735.635,1579.84 735.752,1579.64C735.869,1579.44 736.01,1579.19 736.177,1578.89C736.344,1578.59 736.502,1578.26 736.652,1577.91C736.802,1577.56 736.91,1577.24 736.977,1576.94C737.01,1576.94 737.144,1577.01 737.377,1577.16C737.61,1577.31 737.869,1577.5 738.152,1577.74C738.435,1577.97 738.694,1578.23 738.927,1578.51C739.16,1578.8 739.277,1579.09 739.277,1579.39C739.277,1579.52 739.269,1579.64 739.252,1579.76C739.235,1579.88 739.21,1580.02 739.177,1580.19C738.91,1580.72 738.569,1581.35 738.152,1582.09C737.735,1582.82 737.327,1583.59 736.927,1584.39C736.527,1585.19 736.185,1586 735.902,1586.81C735.619,1587.63 735.477,1588.4 735.477,1589.14C735.477,1589.5 735.519,1589.81 735.602,1590.06C735.685,1590.31 735.86,1590.44 736.127,1590.44C736.594,1590.44 737.177,1590.1 737.877,1589.41C738.577,1588.73 739.26,1587.62 739.927,1586.09C739.927,1586.09 739.96,1586.07 740.027,1586.04C740.094,1586.04 740.16,1586.05 740.227,1586.09Z" style="fill:rgb(89,89,89);fill-rule:nonzero;"/>
            </g>
            <g transform="matrix(1,0,0,1,1.5657,0)">
                <path d="M748.577,1576.89C748.21,1576.92 747.91,1576.96 747.677,1577.01C747.444,1577.06 747.01,1577.1 746.377,1577.14C745.944,1578.04 745.46,1579.07 744.927,1580.24C744.394,1581.4 743.885,1582.56 743.402,1583.71C742.919,1584.86 742.519,1585.94 742.202,1586.94C741.885,1587.94 741.727,1588.75 741.727,1589.39C741.727,1590.09 742.01,1590.44 742.577,1590.44C743.144,1590.44 743.852,1590.1 744.702,1589.41C745.552,1588.73 746.31,1587.62 746.977,1586.09C746.977,1586.09 747.01,1586.07 747.077,1586.04C747.177,1586.04 747.277,1586.09 747.377,1586.19L747.477,1586.29C747.477,1586.09 747.419,1586.26 747.302,1586.81C747.185,1587.36 746.944,1588.02 746.577,1588.79C746.21,1589.55 745.685,1590.27 745.002,1590.94C744.319,1591.6 743.394,1591.94 742.227,1591.94C741.96,1591.94 741.669,1591.89 741.352,1591.81C741.035,1591.73 740.752,1591.56 740.502,1591.31C740.252,1591.06 740.044,1590.74 739.877,1590.34C739.71,1589.94 739.627,1589.4 739.627,1588.74C739.627,1587.94 739.735,1587.03 739.952,1586.01C740.169,1585 740.435,1583.96 740.752,1582.91C741.069,1581.86 741.419,1580.82 741.802,1579.79C742.185,1578.75 742.56,1577.8 742.927,1576.94C741.86,1576.74 741.127,1576.44 740.727,1576.06C740.327,1575.68 740.127,1575.35 740.127,1575.09C740.127,1574.95 740.16,1574.82 740.227,1574.69C740.96,1575.15 741.944,1575.39 743.177,1575.39C743.544,1575.39 743.802,1575.15 743.952,1574.69C744.102,1574.22 744.21,1573.89 744.277,1573.69L744.627,1572.64C744.727,1572.34 744.819,1572.04 744.902,1571.74C744.985,1571.44 745.027,1571.19 745.027,1570.99C745.094,1571.02 745.277,1571.09 745.577,1571.19C745.877,1571.29 746.194,1571.44 746.527,1571.64C746.86,1571.84 747.16,1572.09 747.427,1572.39C747.694,1572.69 747.827,1573.04 747.827,1573.44C747.827,1573.6 747.81,1573.82 747.777,1574.09C747.744,1574.35 747.644,1574.62 747.477,1574.89C749.744,1574.45 751.594,1574.16 753.027,1574.01C754.46,1573.86 755.81,1573.79 757.077,1573.79C758.177,1573.79 759.069,1573.83 759.752,1573.91C760.435,1574 760.91,1574.1 761.177,1574.24C761.51,1574.4 761.81,1574.62 762.077,1574.89C762.31,1575.12 762.519,1575.39 762.702,1575.71C762.885,1576.03 762.977,1576.42 762.977,1576.89C762.977,1577.02 762.944,1577.28 762.877,1577.66C762.81,1578.05 762.727,1578.24 762.627,1578.24C762.527,1578.24 762.319,1578.16 762.002,1578.01C761.685,1577.86 761.152,1577.69 760.402,1577.49C759.652,1577.29 758.635,1577.11 757.352,1576.96C756.069,1576.81 754.41,1576.74 752.377,1576.74C751.244,1576.74 749.977,1576.79 748.577,1576.89Z" style="fill:rgb(89,89,89);fill-rule:nonzero;"/>
            </g>
        </g>
        <g transform="matrix(6.62615,0,0,6.02815,-3591.62,-1896.37)">
            <path d="M624.277,364.011C624.58,363.787 624.866,363.558 625.11,363.32C627.242,361.243 625.259,358.169 623.621,356.179C620.97,352.959 617.051,351.598 613.002,351.63C613.156,351.301 613.291,350.965 613.385,350.613C613.501,350.176 613.572,349.72 613.613,349.253C616.5,348.432 619.316,348.601 622.176,349.535C623.606,350.002 624.977,350.662 626.303,351.367C626.785,351.623 629.094,352.641 629.347,353.127C629.845,354.081 628.31,357.23 628.037,358.217C627.373,360.607 626.743,362.778 624.809,364.426C624.635,364.284 624.46,364.144 624.277,364.011ZM626.837,368.636C627.553,369.909 629.155,373.117 629.113,374.755C629.03,378.022 620.216,380.853 617.393,380.662C617.433,376.519 615.38,372.179 613.136,368.641C613.286,368.632 613.436,368.625 613.587,368.61C615.268,368.44 616.851,367.833 618.368,367.121C619.751,366.472 621.633,365.666 623.208,364.718C624.729,365.727 625.936,367.033 626.837,368.636ZM615.262,384.062C614.95,384.706 614.573,385.473 614.12,386.029C612.879,387.549 610.766,387.967 608.784,387.92C608.03,387.902 607.227,387.817 606.428,387.659C606.302,387.552 606.134,387.49 605.928,387.535L605.898,387.543C603.42,386.946 601.106,385.576 600.57,383.034C601.695,382.503 602.705,380.901 603.567,380.319C605.166,379.24 606.806,378.423 607.767,376.654C609.319,373.802 608.881,370.239 607.737,367.095C608.849,367.979 610.226,368.487 611.736,368.622L611.741,368.635C614.741,373.208 617.934,378.548 615.262,384.062ZM599.36,391.656C598.754,391.735 597.724,390.778 597.055,390.506C595.111,389.717 592.986,389.491 591.686,387.746C594.415,386.892 596.601,385.436 597.793,382.584C598.316,382.908 598.856,383.126 599.407,383.189C599.866,385.834 601.663,387.314 603.999,388.151C603.468,388.381 602.954,388.655 602.445,388.999C601.613,389.559 600.197,391.547 599.36,391.656ZM584.901,387.317C583.72,386.681 584.053,386.086 583.908,384.994C584.707,384.987 585.511,384.914 586.323,384.734C589.749,383.974 592.607,382.124 594.878,379.521C595.457,380.393 596.112,381.212 596.822,381.855C595.54,385.238 592.594,386.532 589.16,387.181C587.725,387.452 586.221,388.029 584.901,387.317ZM577.966,383.32C575.83,382.97 573.808,383.685 573.164,381.189C572.492,378.581 573.535,375.205 574.49,372.743C580.198,375.924 587.301,378.357 592.319,373.293C592.388,373.736 592.472,374.178 592.581,374.615C592.826,375.598 593.417,377.05 594.236,378.482C589.921,383.562 584.317,384.36 577.966,383.32ZM576.544,363.714C578.394,360.186 580.881,356.892 585.116,356.597C585.168,356.697 585.236,356.789 585.329,356.848C588.22,358.694 591.01,362.492 594.636,363.06C592.828,365.567 592.01,368.648 592.16,371.732C589.555,374.823 585.889,375.596 581.989,374.755C580.733,374.484 574.134,372.553 573.495,370.827C572.853,369.092 575.734,365.258 576.544,363.714ZM571.387,352.073C573.903,351.239 575.935,349.643 577.917,347.876C578.959,350.883 580.872,353.579 583.543,355.634C580.401,356.341 578.336,358.561 576.657,361.247C573.865,358.813 573.894,354.702 571.387,352.073ZM581.376,338.523C583.236,338.549 585,338.866 586.736,339.36C586.595,339.464 586.454,339.583 586.311,339.744C585.101,341.097 584.644,343.941 584.484,345.66C584.191,348.807 585.2,351.78 587.55,353.811C586.857,354.186 586.21,354.705 585.626,355.399C585.497,355.4 585.373,355.409 585.247,355.414C581.138,352.721 578.172,348.083 578.079,343.084C578.029,340.347 578.37,338.481 581.376,338.523ZM595.57,332.788C596.947,331.567 598.4,330.799 600.286,331.681C601.253,332.133 602.346,333.63 603.219,334.682C600.094,336.153 597.3,338.106 595.437,341.224C594.443,340.552 593.336,340.019 592.143,339.639C592.392,336.997 593.571,334.561 595.57,332.788ZM608.986,335.39C609.814,336.881 610.328,338.693 610.942,340.313C607.73,341.118 603.926,341.993 601.556,344.318C600.745,345.113 600.276,346.048 599.998,347.053C599.276,345.041 598.026,343.283 596.384,341.928C598.224,338.79 601.096,336.846 604.331,335.418L604.395,335.391C604.807,335.21 605.222,335.035 605.643,334.869C607.411,334.174 608.041,333.685 608.986,335.39ZM588.651,354.495L588.816,354.44C589.629,354.204 590.501,354.1 591.003,354.088C593.529,354.025 595.865,355.269 597.987,356.497C598.13,357.655 598.734,358.759 599.806,359.461C597.928,361.738 595.342,362.545 592.638,360.997C590.947,360.029 588.877,358.478 587.586,356.99C586.91,356.212 586.366,356.724 587.019,355.54C587.285,355.057 587.934,354.724 588.651,354.495ZM601.445,353.037C602.668,353.81 601.531,355.315 601.152,356.368C600.885,357.113 600.765,357.871 600.755,358.645C598.316,357.41 598.618,353.791 601.445,353.037ZM601.951,359.41C601.874,358.352 602.027,357.406 602.403,356.423C604.03,355.225 606.804,355.12 608.546,356.181C610.066,357.108 610.82,358.975 612.049,360.28C610.451,361.462 608.658,362.722 606.672,362.889C604.377,363.082 602.41,361.657 601.951,359.41ZM611.522,341.375C611.822,343.437 612.207,345.531 612.334,347.6C612.534,350.856 611.057,353.121 608.32,354.814C608.225,354.775 608.144,354.722 608.044,354.688C606.504,354.175 604.64,354.13 603.078,354.726C603.129,354.547 603.166,354.365 603.183,354.179C603.282,353.124 602.757,352.337 601.812,351.903L601.675,351.87L601.564,351.844L601.361,351.844C601.134,351.889 600.926,351.957 600.722,352.029C600.813,348.983 600.697,346.058 603.626,344.205C605.954,342.732 608.846,342.057 611.522,341.375ZM585.781,344.778C586.021,343.394 586.335,341.882 587.431,340.927C587.748,340.33 588.17,340.023 588.689,339.988C588.92,340.07 589.15,340.151 589.38,340.238C589.523,340.292 589.643,340.277 589.748,340.236L589.952,340.332C590.584,340.448 591.208,340.6 591.823,340.788C597.043,342.426 600.272,347.284 599.401,352.771C598.65,353.404 598.186,354.263 598.021,355.178C595.158,353.628 591.689,352.44 588.759,353.306C586.019,351.315 585.223,348.013 585.781,344.778ZM600.504,381.42C597.245,382.65 594.292,376.656 593.709,374.304C592.749,370.428 593.49,366.138 596.094,363.08C598.003,362.809 599.707,361.45 600.888,359.968C601.391,362 602.901,363.43 604.932,363.903C606.777,367.018 608.431,371.49 607.131,375.142C606.216,377.712 604.415,378.298 602.539,379.601C601.901,380.044 601.099,381.196 600.504,381.42ZM623.231,363.074C623.14,363.154 623.043,363.235 622.946,363.315C622.758,363.349 622.606,363.48 622.524,363.652C618.281,366.904 609.425,370.056 606.818,364.045C609.207,363.825 611.371,362.225 613.248,360.84C613.522,360.638 613.684,360.186 613.366,359.921C611.812,358.63 611.005,356.677 609.466,355.476C610.522,354.762 611.533,353.868 612.293,352.822C614.903,352.695 617.548,353.084 619.833,354.436C621.221,355.257 622.517,356.478 623.406,357.844C624.752,359.911 625.463,361.102 623.231,363.074ZM614.725,338.55C615.643,338.602 616.747,338.623 617.629,338.901C618.618,339.214 618.643,339.506 618.781,340.472C619.13,342.921 619.479,345.371 619.828,347.82C617.833,347.469 615.777,347.486 613.652,348.034C613.604,345.566 612.884,342.88 612.586,340.648C612.547,340.357 612.362,340.119 612.091,340.076C611.897,339.587 611.704,339.098 611.51,338.609C612.58,338.525 613.651,338.489 614.725,338.55Z" style="fill:none;fill-rule:nonzero;stroke:white;stroke-width:2.55px;"/>
            <path d="M624.277,364.011C624.58,363.787 624.866,363.558 625.11,363.32C627.242,361.243 625.259,358.169 623.621,356.179C620.97,352.959 617.051,351.598 613.002,351.63C613.156,351.301 613.291,350.965 613.385,350.613C613.501,350.176 613.572,349.72 613.613,349.253C616.5,348.432 619.316,348.601 622.176,349.535C623.606,350.002 624.977,350.662 626.303,351.367C626.785,351.623 629.094,352.641 629.347,353.127C629.845,354.081 628.31,357.23 628.037,358.217C627.373,360.607 626.743,362.778 624.809,364.426C624.635,364.284 624.46,364.144 624.277,364.011ZM626.837,368.636C627.553,369.909 629.155,373.117 629.113,374.755C629.03,378.022 620.216,380.853 617.393,380.662C617.433,376.519 615.38,372.179 613.136,368.641C613.286,368.632 613.436,368.625 613.587,368.61C615.268,368.44 616.851,367.833 618.368,367.121C619.751,366.472 621.633,365.666 623.208,364.718C624.729,365.727 625.936,367.033 626.837,368.636ZM615.262,384.062C614.95,384.706 614.573,385.473 614.12,386.029C612.879,387.549 610.766,387.967 608.784,387.92C608.03,387.902 607.227,387.817 606.428,387.659C606.302,387.552 606.134,387.49 605.928,387.535L605.898,387.543C603.42,386.946 601.106,385.576 600.57,383.034C601.695,382.503 602.705,380.901 603.567,380.319C605.166,379.24 606.806,378.423 607.767,376.654C609.319,373.802 608.881,370.239 607.737,367.095C608.849,367.979 610.226,368.487 611.736,368.622L611.741,368.635C614.741,373.208 617.934,378.548 615.262,384.062ZM599.36,391.656C598.754,391.735 597.724,390.778 597.055,390.506C595.111,389.717 592.986,389.491 591.686,387.746C594.415,386.892 596.601,385.436 597.793,382.584C598.316,382.908 598.856,383.126 599.407,383.189C599.866,385.834 601.663,387.314 603.999,388.151C603.468,388.381 602.954,388.655 602.445,388.999C601.613,389.559 600.197,391.547 599.36,391.656ZM584.901,387.317C583.72,386.681 584.053,386.086 583.908,384.994C584.707,384.987 585.511,384.914 586.323,384.734C589.749,383.974 592.607,382.124 594.878,379.521C595.457,380.393 596.112,381.212 596.822,381.855C595.54,385.238 592.594,386.532 589.16,387.181C587.725,387.452 586.221,388.029 584.901,387.317ZM577.966,383.32C575.83,382.97 573.808,383.685 573.164,381.189C572.492,378.581 573.535,375.205 574.49,372.743C580.198,375.924 587.301,378.357 592.319,373.293C592.388,373.736 592.472,374.178 592.581,374.615C592.826,375.598 593.417,377.05 594.236,378.482C589.921,383.562 584.317,384.36 577.966,383.32ZM576.544,363.714C578.394,360.186 580.881,356.892 585.116,356.597C585.168,356.697 585.236,356.789 585.329,356.848C588.22,358.694 591.01,362.492 594.636,363.06C592.828,365.567 592.01,368.648 592.16,371.732C589.555,374.823 585.889,375.596 581.989,374.755C580.733,374.484 574.134,372.553 573.495,370.827C572.853,369.092 575.734,365.258 576.544,363.714ZM571.387,352.073C573.903,351.239 575.935,349.643 577.917,347.876C578.959,350.883 580.872,353.579 583.543,355.634C580.401,356.341 578.336,358.561 576.657,361.247C573.865,358.813 573.894,354.702 571.387,352.073ZM581.376,338.523C583.236,338.549 585,338.866 586.736,339.36C586.595,339.464 586.454,339.583 586.311,339.744C585.101,341.097 584.644,343.941 584.484,345.66C584.191,348.807 585.2,351.78 587.55,353.811C586.857,354.186 586.21,354.705 585.626,355.399C585.497,355.4 585.373,355.409 585.247,355.414C581.138,352.721 578.172,348.083 578.079,343.084C578.029,340.347 578.37,338.481 581.376,338.523ZM595.57,332.788C596.947,331.567 598.4,330.799 600.286,331.681C601.253,332.133 602.346,333.63 603.219,334.682C600.094,336.153 597.3,338.106 595.437,341.224C594.443,340.552 593.336,340.019 592.143,339.639C592.392,336.997 593.571,334.561 595.57,332.788ZM608.986,335.39C609.814,336.881 610.328,338.693 610.942,340.313C607.73,341.118 603.926,341.993 601.556,344.318C600.745,345.113 600.276,346.048 599.998,347.053C599.276,345.041 598.026,343.283 596.384,341.928C598.224,338.79 601.096,336.846 604.331,335.418L604.395,335.391C604.807,335.21 605.222,335.035 605.643,334.869C607.411,334.174 608.041,333.685 608.986,335.39ZM588.651,354.495L588.816,354.44C589.629,354.204 590.501,354.1 591.003,354.088C593.529,354.025 595.865,355.269 597.987,356.497C598.13,357.655 598.734,358.759 599.806,359.461C597.928,361.738 595.342,362.545 592.638,360.997C590.947,360.029 588.877,358.478 587.586,356.99C586.91,356.212 586.366,356.724 587.019,355.54C587.285,355.057 587.934,354.724 588.651,354.495ZM601.445,353.037C602.668,353.81 601.531,355.315 601.152,356.368C600.885,357.113 600.765,357.871 600.755,358.645C598.316,357.41 598.618,353.791 601.445,353.037ZM601.951,359.41C601.874,358.352 602.027,357.406 602.403,356.423C604.03,355.225 606.804,355.12 608.546,356.181C610.066,357.108 610.82,358.975 612.049,360.28C610.451,361.462 608.658,362.722 606.672,362.889C604.377,363.082 602.41,361.657 601.951,359.41ZM611.522,341.375C611.822,343.437 612.207,345.531 612.334,347.6C612.534,350.856 611.057,353.121 608.32,354.814C608.225,354.775 608.144,354.722 608.044,354.688C606.504,354.175 604.64,354.13 603.078,354.726C603.129,354.547 603.166,354.365 603.183,354.179C603.282,353.124 602.757,352.337 601.812,351.903L601.675,351.87L601.564,351.844L601.361,351.844C601.134,351.889 600.926,351.957 600.722,352.029C600.813,348.983 600.697,346.058 603.626,344.205C605.954,342.732 608.846,342.057 611.522,341.375ZM585.781,344.778C586.021,343.394 586.335,341.882 587.431,340.927C587.748,340.33 588.17,340.023 588.689,339.988C588.92,340.07 589.15,340.151 589.38,340.238C589.523,340.292 589.643,340.277 589.748,340.236L589.952,340.332C590.584,340.448 591.208,340.6 591.823,340.788C597.043,342.426 600.272,347.284 599.401,352.771C598.65,353.404 598.186,354.263 598.021,355.178C595.158,353.628 591.689,352.44 588.759,353.306C586.019,351.315 585.223,348.013 585.781,344.778ZM600.504,381.42C597.245,382.65 594.292,376.656 593.709,374.304C592.749,370.428 593.49,366.138 596.094,363.08C598.003,362.809 599.707,361.45 600.888,359.968C601.391,362 602.901,363.43 604.932,363.903C606.777,367.018 608.431,371.49 607.131,375.142C606.216,377.712 604.415,378.298 602.539,379.601C601.901,380.044 601.099,381.196 600.504,381.42ZM623.231,363.074C623.14,363.154 623.043,363.235 622.946,363.315C622.758,363.349 622.606,363.48 622.524,363.652C618.281,366.904 609.425,370.056 606.818,364.045C609.207,363.825 611.371,362.225 613.248,360.84C613.522,360.638 613.684,360.186 613.366,359.921C611.812,358.63 611.005,356.677 609.466,355.476C610.522,354.762 611.533,353.868 612.293,352.822C614.903,352.695 617.548,353.084 619.833,354.436C621.221,355.257 622.517,356.478 623.406,357.844C624.752,359.911 625.463,361.102 623.231,363.074ZM614.725,338.55C615.643,338.602 616.747,338.623 617.629,338.901C618.618,339.214 618.643,339.506 618.781,340.472C619.13,342.921 619.479,345.371 619.828,347.82C617.833,347.469 615.777,347.486 613.652,348.034C613.604,345.566 612.884,342.88 612.586,340.648C612.547,340.357 612.362,340.119 612.091,340.076C611.897,339.587 611.704,339.098 611.51,338.609C612.58,338.525 613.651,338.489 614.725,338.55Z" style="fill:rgb(0,116,107);fill-rule:nonzero;"/>
        </g>
    </g>
</svg>
